<svg version="1.2" xmlns="http://www.w3.org/2000/svg" viewBox="0 0 1920 702" width="1920" height="702">
	<style>
		.s0 { fill: #3651ab } 
		.s1 { fill: #85878b } 
		.s2 { fill: #f3411f } 
	</style>
	<path id="Path 165" class="s0" d="m23 165.89v-65.25h267.19v65.25h-98.17v260.98h-70.22v-260.36z"/>
	<path id="Path 166" fill-rule="evenodd" class="s0" d="m494.23 356.03h-132.09l-25.96 70.84h-76.44l132.37-326.23h73.31l129.87 326.23h-74.56zm-22.08-59.03l-44.63-119.3-43.74 119.3zm156.69-196.36h117.45c13.57-0.21 32.03 0.89 53.12 6.31 21.35 5.51 38.19 13.6 50.02 20.41q-8.69 34.18-17.4 68.36c-6.02-6.26-16.04-15.14-30.54-22.06-17.82-8.5-34.03-10.06-43.39-10.26h-59.03v202.57h87.6c11.05-0.91 29.38-4.05 48.16-15.63 37.51-23.14 47.83-62.13 50.02-71.36q7.47 33.87 14.91 67.73c-6.12 11.82-22.27 39.06-55.29 58.92-31.95 19.22-62.46 21.17-75.82 21.24h-139.81zm482.09-0.03h75.81l128.83 326.26h-72.08l-26.51-68.77h-40.59l18.64-57.59-47.64-121.79-34.39 90.73h-72.08z"/>
	<path id="Path 167" fill-rule="evenodd" class="s0" d="m1288.03 100.62h78.29l62.76 230.55 71.47-230.55h67.72l69.6 230.55 63.38-230.55h77.67l-105.63 326.26h-66.5l-73.31-224.33-72.71 224.33h-65.86zm608.95-0.01v326.26h-68.97v-326.26z"/>
	<path id="Path 168" fill-rule="evenodd" class="s1" d="m308.86 669.88h95.78l3.43-24.62h-69.18v-114.25h-30.03zm168.76-138.87v138.87h30.03v-138.87zm114.98 138.87h29.32v-55.63h63.33v-24.6h-63.33v-34.04h67.6v-24.6h-96.92zm256.79-84.51h-66.42v-29.75h69.34v-24.61h-98.47v138.86h98.83l3.56-24.61h-73.26v-35.28h66.42zm221.75 84.5h30.05v-114.25h42.04v-24.6h-114.28v24.6h42.19zm237.98-84.5h-66.42v-29.76h69.34v-24.61h-98.47v138.87h98.83l3.57-24.61h-73.27v-35.28h66.42zm169.92 41.69c-2.61 8.1-8.8 21.23-28.39 21.23-26.83 0-35.12-24.74-35.12-48.21 0-25.26 9.55-47.54 34.32-47.54 18.88 0 26.33 10.67 29.22 21.37h30.02c-3.37-23.21-21.3-44.93-58.27-44.93-44.82 0-66.3 34.12-66.3 72.19 0 39.51 20.82 70.67 64.85 70.67 34.78 0 54.3-18.87 59.89-44.78zm105.06 42.81h30.02v-60.1h55.87v60.1h30.04v-138.86h-30.04v54.15h-55.87v-54.15h-30.02z"/>
	<path id="Path 169" class="s2" d="m780.98 338.22c7.1-1.74 20.31-6.02 33.02-17.09 16.33-14.24 22.16-31.32 24.15-38.42q21.55-84.1 43.08-168.18l82.85 344.65c2.88 7.98 10.26 13.46 18.57 13.83 8.92 0.38 17.25-5.21 20.37-13.83q24.85-60.48 49.71-120.96h130.1l12.2-37.7h-166.07l-40.96 103.15-88.24-364.54c-2.5-7.67-9.55-12.94-17.52-13.13-8.27-0.19-15.8 5.15-18.4 13.13q-41.43 149.55-82.86 299.09z"/>
</svg>